M48
METRIC,LZ,000.000
;FILE_FORMAT=3:3
;TYPE=PLATED
;Layer: PTH_Through
;EasyEDA v6.5.42, 2024-05-25 08:47:02
;c832b5f5d920414fa9447ed0a7611263,2865ae9118a24060a17af6d01c9bcc73,10
;Gerber Generator version 0.2
;Holesize 1 = 0.301 mm
T01C0.301
;Holesize 2 = 0.305 mm
T02C0.305
;Holesize 3 = 0.310 mm
T03C0.310
;Holesize 4 = 1.021 mm
T04C1.021
;Holesize 5 = 1.101 mm
T05C1.101
;Holesize 6 = 2.000 mm
T06C2.000
%
G05
G90
T01
X002056Y-014470
X002056Y-013470
X003056Y-014470
X003056Y-013470
X004056Y-014470
X004056Y-013470
X005056Y-014470
X005056Y-013470
T02
X001143Y-018288
X000000Y-019177
X001143Y-019050
X006985Y-018415
X007493Y-019050
X006223Y-018415
X006477Y-019050
X000508Y-018669
X001905Y-009398
X003302Y-009398
X000127Y-009398
X005461Y-009017
X006477Y-009271
X008001Y-009398
X016002Y-005969
X014859Y-020701
X015875Y-016764
X-002286Y-012573
X014351Y-017399
X015875Y-021590
X016764Y-016129
X016891Y-017399
X013716Y-021590
X014224Y-004826
X015875Y-010033
X009398Y-013843
X012827Y-020828
X011811Y-021844
X-002032Y-008382
X-000508Y-008636
X009271Y-021717
X015875Y-003556
X013462Y-011303
X014478Y-006604
X009144Y-015240
X011938Y-016256
X010668Y-016256
X012319Y-017018
X011176Y-017018
X000591Y-019465
X007760Y-018407
T03
X-002159Y-014097
X-002921Y-020955
X-001524Y-016129
X004572Y-009525
X-003175Y-008509
X-001270Y-009906
T04
X-001143Y-021844
X001397Y-021844
X003937Y-021844
X006477Y-021844
X-001143Y-006477
X001397Y-006477
X003937Y-006477
X006477Y-006477
X009017Y-006477
X-001143Y-003937
X001397Y-003937
X003937Y-003937
X006477Y-003937
X009017Y-003937
X011557Y-003937
T05
X016256Y-007747
X016256Y-012700
T06
X018161Y-021209
X-004445Y-003683
X-004445Y-021336
X018161Y-003810
M30
