G04 Layer: BottomLayer*
G04 EasyEDA v6.5.42, 2024-05-25 08:47:02*
G04 c832b5f5d920414fa9447ed0a7611263,2865ae9118a24060a17af6d01c9bcc73,10*
G04 Gerber Generator version 0.2*
G04 Scale: 100 percent, Rotated: No, Reflected: No *
G04 Dimensions in millimeters *
G04 leading zeros omitted , absolute positions ,4 integer and 5 decimal *
%FSLAX45Y45*%
%MOMM*%

%ADD10C,0.2540*%
%ADD11O,2.4999949999999997X1.6999966*%
%ADD12C,2.0000*%
%ADD13C,1.5748*%
%ADD14C,0.6000*%
%ADD15C,0.6096*%
%ADD16C,0.6200*%
%ADD17C,0.0146*%

%LPD*%
G36*
X-465734Y-2272792D02*
G01*
X-472084Y-2271928D01*
X-487019Y-2268118D01*
X-501497Y-2262632D01*
X-515264Y-2255621D01*
X-528167Y-2247188D01*
X-540105Y-2237333D01*
X-550875Y-2226259D01*
X-560374Y-2214067D01*
X-568452Y-2200910D01*
X-575106Y-2186940D01*
X-580136Y-2172360D01*
X-583590Y-2157272D01*
X-585317Y-2141931D01*
X-585419Y-2126488D01*
X-583793Y-2111095D01*
X-580491Y-2096007D01*
X-575564Y-2081377D01*
X-569061Y-2067356D01*
X-561086Y-2054148D01*
X-551688Y-2041855D01*
X-540969Y-2030679D01*
X-529183Y-2020773D01*
X-516331Y-2012188D01*
X-502615Y-2005025D01*
X-488188Y-1999488D01*
X-473252Y-1995474D01*
X-458927Y-1993341D01*
X-392887Y-1991614D01*
X-386384Y-1990648D01*
X-380949Y-1988413D01*
X-375818Y-1984705D01*
X-373481Y-1982266D01*
X-369925Y-1977085D01*
X-367792Y-1971548D01*
X-367030Y-1965045D01*
X-368554Y-538835D01*
X-369366Y-532333D01*
X-371449Y-526796D01*
X-375005Y-521614D01*
X-377596Y-519023D01*
X-382676Y-515366D01*
X-388162Y-513181D01*
X-394665Y-512318D01*
X-455828Y-511352D01*
X-472490Y-509016D01*
X-487730Y-505104D01*
X-502412Y-499567D01*
X-516432Y-492455D01*
X-529539Y-483819D01*
X-541680Y-473862D01*
X-552602Y-462584D01*
X-562305Y-450240D01*
X-570534Y-436829D01*
X-577240Y-422656D01*
X-582422Y-407822D01*
X-585927Y-392531D01*
X-587705Y-376936D01*
X-587806Y-361238D01*
X-586181Y-345592D01*
X-582828Y-330250D01*
X-577850Y-315366D01*
X-571246Y-301091D01*
X-563168Y-287680D01*
X-553618Y-275183D01*
X-542798Y-263804D01*
X-530809Y-253695D01*
X-517753Y-244957D01*
X-503834Y-237693D01*
X-489204Y-231952D01*
X-474014Y-227888D01*
X-458520Y-225501D01*
X-442823Y-224840D01*
X-427177Y-225907D01*
X-411327Y-228650D01*
X-405942Y-229108D01*
X1826564Y-229108D01*
X1843582Y-231241D01*
X1859381Y-235000D01*
X1874672Y-240436D01*
X1889302Y-247497D01*
X1903120Y-256032D01*
X1915922Y-265988D01*
X1927606Y-277317D01*
X1938020Y-289763D01*
X1947062Y-303276D01*
X1954580Y-317652D01*
X1960524Y-332740D01*
X1964842Y-348386D01*
X1967484Y-364439D01*
X1968398Y-380644D01*
X1967534Y-396849D01*
X1964994Y-412902D01*
X1960778Y-428548D01*
X1954885Y-443687D01*
X1947418Y-458114D01*
X1938426Y-471678D01*
X1928114Y-484174D01*
X1916480Y-495503D01*
X1903730Y-505561D01*
X1889963Y-514197D01*
X1875332Y-521258D01*
X1860092Y-526796D01*
X1844293Y-530656D01*
X1829104Y-532688D01*
X1786737Y-534365D01*
X1778050Y-533095D01*
X1775510Y-533146D01*
X1771700Y-533755D01*
X1765960Y-535940D01*
X1761083Y-539292D01*
X1756968Y-543966D01*
X1755089Y-547065D01*
X1752904Y-552907D01*
X1752092Y-559409D01*
X1752092Y-1176324D01*
X1751380Y-1180084D01*
X1749348Y-1183284D01*
X1746250Y-1185519D01*
X1742592Y-1186484D01*
X1738782Y-1185976D01*
X1735480Y-1184148D01*
X1730756Y-1180287D01*
X1719021Y-1172819D01*
X1706422Y-1166876D01*
X1693164Y-1162608D01*
X1679498Y-1159967D01*
X1665274Y-1159103D01*
X1585925Y-1159103D01*
X1571701Y-1159967D01*
X1558036Y-1162608D01*
X1544777Y-1166876D01*
X1532178Y-1172819D01*
X1520444Y-1180287D01*
X1509674Y-1189177D01*
X1500174Y-1199337D01*
X1491996Y-1210564D01*
X1485290Y-1222806D01*
X1480159Y-1235710D01*
X1476654Y-1249222D01*
X1474927Y-1263040D01*
X1474927Y-1276959D01*
X1476654Y-1290777D01*
X1480159Y-1304290D01*
X1485290Y-1317193D01*
X1491996Y-1329436D01*
X1500174Y-1340662D01*
X1509674Y-1350822D01*
X1520444Y-1359712D01*
X1532178Y-1367180D01*
X1544777Y-1373124D01*
X1558036Y-1377391D01*
X1571701Y-1380032D01*
X1585925Y-1380896D01*
X1665274Y-1380896D01*
X1679498Y-1380032D01*
X1693164Y-1377391D01*
X1706422Y-1373124D01*
X1719021Y-1367180D01*
X1730756Y-1359712D01*
X1735480Y-1355852D01*
X1738782Y-1354023D01*
X1742592Y-1353515D01*
X1746250Y-1354480D01*
X1749348Y-1356715D01*
X1751380Y-1359916D01*
X1752092Y-1363675D01*
X1752092Y-1941474D01*
X1752904Y-1947976D01*
X1754987Y-1953514D01*
X1758543Y-1958695D01*
X1760931Y-1961134D01*
X1766011Y-1964842D01*
X1771497Y-1967077D01*
X1778000Y-1967992D01*
X1829054Y-1969211D01*
X1845360Y-1971446D01*
X1861108Y-1975408D01*
X1876348Y-1981047D01*
X1890877Y-1988261D01*
X1904593Y-1996998D01*
X1917293Y-2007107D01*
X1928825Y-2018538D01*
X1939086Y-2031085D01*
X1947925Y-2044700D01*
X1955292Y-2059178D01*
X1961083Y-2074367D01*
X1965198Y-2090064D01*
X1967636Y-2106117D01*
X1968347Y-2122322D01*
X1967331Y-2138527D01*
X1964588Y-2154580D01*
X1960168Y-2170176D01*
X1954123Y-2185263D01*
X1946503Y-2199589D01*
X1937359Y-2213000D01*
X1926843Y-2225395D01*
X1915109Y-2236622D01*
X1902206Y-2246477D01*
X1888388Y-2254961D01*
X1873707Y-2261870D01*
X1858365Y-2267204D01*
X1842516Y-2270861D01*
X1826564Y-2272792D01*
X731469Y-2272792D01*
X727659Y-2272080D01*
X724458Y-2269947D01*
X722223Y-2266848D01*
X721309Y-2263089D01*
X721868Y-2259279D01*
X723849Y-2255926D01*
X730707Y-2248103D01*
X738327Y-2236724D01*
X744372Y-2224430D01*
X748741Y-2211476D01*
X751433Y-2198065D01*
X752348Y-2184400D01*
X751433Y-2170734D01*
X748741Y-2157323D01*
X744372Y-2144369D01*
X738327Y-2132076D01*
X730707Y-2120696D01*
X721664Y-2110435D01*
X711403Y-2101392D01*
X700024Y-2093772D01*
X687730Y-2087727D01*
X674776Y-2083358D01*
X661365Y-2080666D01*
X647700Y-2079752D01*
X634034Y-2080666D01*
X620623Y-2083358D01*
X607669Y-2087727D01*
X595376Y-2093772D01*
X583996Y-2101392D01*
X573735Y-2110435D01*
X564692Y-2120696D01*
X557072Y-2132076D01*
X551027Y-2144369D01*
X546658Y-2157323D01*
X543966Y-2170734D01*
X543052Y-2184400D01*
X543966Y-2198065D01*
X546658Y-2211476D01*
X551027Y-2224430D01*
X557072Y-2236724D01*
X564692Y-2248103D01*
X571550Y-2255926D01*
X573532Y-2259279D01*
X574090Y-2263089D01*
X573176Y-2266848D01*
X570941Y-2269947D01*
X567740Y-2272080D01*
X563930Y-2272792D01*
X477469Y-2272792D01*
X473659Y-2272080D01*
X470458Y-2269947D01*
X468223Y-2266848D01*
X467309Y-2263089D01*
X467868Y-2259279D01*
X469849Y-2255926D01*
X476707Y-2248103D01*
X484327Y-2236724D01*
X490372Y-2224430D01*
X494741Y-2211476D01*
X497433Y-2198065D01*
X498348Y-2184400D01*
X497433Y-2170734D01*
X494741Y-2157323D01*
X490372Y-2144369D01*
X484327Y-2132076D01*
X476707Y-2120696D01*
X467664Y-2110435D01*
X457403Y-2101392D01*
X446024Y-2093772D01*
X433730Y-2087727D01*
X420776Y-2083358D01*
X407365Y-2080666D01*
X393700Y-2079752D01*
X380034Y-2080666D01*
X366623Y-2083358D01*
X353669Y-2087727D01*
X341376Y-2093772D01*
X329996Y-2101392D01*
X319735Y-2110435D01*
X310692Y-2120696D01*
X303072Y-2132076D01*
X297027Y-2144369D01*
X292658Y-2157323D01*
X289966Y-2170734D01*
X289052Y-2184400D01*
X289966Y-2198065D01*
X292658Y-2211476D01*
X297027Y-2224430D01*
X303072Y-2236724D01*
X310692Y-2248103D01*
X317550Y-2255926D01*
X319532Y-2259279D01*
X320090Y-2263089D01*
X319176Y-2266848D01*
X316941Y-2269947D01*
X313740Y-2272080D01*
X309930Y-2272792D01*
X223469Y-2272792D01*
X219659Y-2272080D01*
X216458Y-2269947D01*
X214223Y-2266848D01*
X213309Y-2263089D01*
X213867Y-2259279D01*
X215849Y-2255926D01*
X222707Y-2248103D01*
X230327Y-2236724D01*
X236372Y-2224430D01*
X240741Y-2211476D01*
X243433Y-2198065D01*
X244348Y-2184400D01*
X243433Y-2170734D01*
X240741Y-2157323D01*
X236372Y-2144369D01*
X230327Y-2132076D01*
X222707Y-2120696D01*
X213664Y-2110435D01*
X203403Y-2101392D01*
X192024Y-2093772D01*
X179730Y-2087727D01*
X166776Y-2083358D01*
X153365Y-2080666D01*
X139700Y-2079752D01*
X126034Y-2080666D01*
X112623Y-2083358D01*
X99669Y-2087727D01*
X87376Y-2093772D01*
X75996Y-2101392D01*
X65735Y-2110435D01*
X56692Y-2120696D01*
X49072Y-2132076D01*
X43027Y-2144369D01*
X38658Y-2157323D01*
X35966Y-2170734D01*
X35052Y-2184400D01*
X35966Y-2198065D01*
X38658Y-2211476D01*
X43027Y-2224430D01*
X49072Y-2236724D01*
X56692Y-2248103D01*
X63550Y-2255926D01*
X65532Y-2259279D01*
X66090Y-2263089D01*
X65176Y-2266848D01*
X62941Y-2269947D01*
X59740Y-2272080D01*
X55930Y-2272792D01*
X-30530Y-2272792D01*
X-34340Y-2272080D01*
X-37541Y-2269947D01*
X-39776Y-2266848D01*
X-40690Y-2263089D01*
X-40132Y-2259279D01*
X-38150Y-2255926D01*
X-31292Y-2248103D01*
X-23672Y-2236724D01*
X-17627Y-2224430D01*
X-13258Y-2211476D01*
X-10566Y-2198065D01*
X-9652Y-2184400D01*
X-10566Y-2170734D01*
X-13258Y-2157323D01*
X-17627Y-2144369D01*
X-23672Y-2132076D01*
X-31292Y-2120696D01*
X-40335Y-2110435D01*
X-50596Y-2101392D01*
X-61976Y-2093772D01*
X-74269Y-2087727D01*
X-87223Y-2083358D01*
X-100634Y-2080666D01*
X-114300Y-2079752D01*
X-127965Y-2080666D01*
X-141376Y-2083358D01*
X-154330Y-2087727D01*
X-166624Y-2093772D01*
X-178003Y-2101392D01*
X-188264Y-2110435D01*
X-197307Y-2120696D01*
X-204927Y-2132076D01*
X-210972Y-2144369D01*
X-215341Y-2157323D01*
X-218033Y-2170734D01*
X-218948Y-2184400D01*
X-218033Y-2198065D01*
X-215341Y-2211476D01*
X-210972Y-2224430D01*
X-204927Y-2236724D01*
X-197307Y-2248103D01*
X-190449Y-2255926D01*
X-188468Y-2259279D01*
X-187909Y-2263089D01*
X-188823Y-2266848D01*
X-191058Y-2269947D01*
X-194259Y-2272080D01*
X-198069Y-2272792D01*
G37*

%LPC*%
G36*
X25755Y-2045207D02*
G01*
X812495Y-2045207D01*
X818540Y-2044547D01*
X824026Y-2042617D01*
X828954Y-2039518D01*
X831342Y-2037435D01*
X896772Y-1972005D01*
X900074Y-1969770D01*
X903935Y-1969007D01*
X1168247Y-1969007D01*
X1175664Y-1967890D01*
X1180998Y-1965655D01*
X1186180Y-1961997D01*
X1312418Y-1848357D01*
X1315516Y-1845056D01*
X1318666Y-1840026D01*
X1320596Y-1834540D01*
X1321308Y-1828241D01*
X1321308Y-1613408D01*
X1320698Y-1607566D01*
X1318869Y-1602028D01*
X1315821Y-1597101D01*
X1311808Y-1592935D01*
X1306474Y-1589481D01*
X1231290Y-1551889D01*
X1225346Y-1549704D01*
X1218590Y-1548892D01*
X1054658Y-1548892D01*
X1048359Y-1549603D01*
X1042720Y-1551584D01*
X1038961Y-1553768D01*
X756513Y-1750263D01*
X753719Y-1751634D01*
X750671Y-1752092D01*
X63652Y-1752092D01*
X56489Y-1753107D01*
X50596Y-1755546D01*
X-88239Y-1831238D01*
X-92202Y-1833880D01*
X-96418Y-1838096D01*
X-99466Y-1842973D01*
X-101396Y-1848459D01*
X-102108Y-1854758D01*
X-102006Y-1983181D01*
X-100787Y-1989175D01*
X-98399Y-1994458D01*
X-94894Y-1999081D01*
X-90424Y-2002789D01*
X-84785Y-2005634D01*
X15747Y-2043379D01*
X22148Y-2044954D01*
G37*
G36*
X-228600Y-1313637D02*
G01*
X-218795Y-1312773D01*
X-209346Y-1310233D01*
X-200406Y-1306118D01*
X-192379Y-1300480D01*
X-185420Y-1293520D01*
X-179781Y-1285494D01*
X-175666Y-1276553D01*
X-173126Y-1267104D01*
X-172262Y-1257300D01*
X-173126Y-1247495D01*
X-175666Y-1238046D01*
X-179781Y-1229106D01*
X-185420Y-1221079D01*
X-186994Y-1219504D01*
X-189230Y-1216202D01*
X-189992Y-1212291D01*
X-189992Y-1201318D01*
X-189230Y-1197406D01*
X-186994Y-1194104D01*
X8178Y-998931D01*
X11074Y-996899D01*
X14478Y-995984D01*
X22504Y-995273D01*
X31953Y-992733D01*
X40894Y-988618D01*
X48920Y-982980D01*
X50495Y-981405D01*
X53797Y-979169D01*
X57708Y-978408D01*
X145491Y-978408D01*
X149402Y-979169D01*
X152704Y-981405D01*
X154279Y-982980D01*
X162306Y-988618D01*
X171246Y-992733D01*
X180695Y-995273D01*
X190500Y-996137D01*
X200304Y-995273D01*
X209753Y-992733D01*
X218694Y-988618D01*
X226720Y-982980D01*
X228295Y-981405D01*
X231597Y-979169D01*
X235508Y-978408D01*
X285191Y-978408D01*
X289102Y-979169D01*
X292404Y-981405D01*
X293979Y-982980D01*
X302006Y-988618D01*
X310946Y-992733D01*
X320395Y-995273D01*
X330200Y-996137D01*
X340004Y-995273D01*
X349453Y-992733D01*
X350977Y-992073D01*
X355244Y-991108D01*
X411480Y-991108D01*
X415035Y-991768D01*
X418185Y-993648D01*
X423367Y-998219D01*
X431596Y-1003300D01*
X440537Y-1006856D01*
X449986Y-1008887D01*
X459638Y-1009345D01*
X469188Y-1008075D01*
X478383Y-1005281D01*
X487019Y-1000912D01*
X494792Y-995171D01*
X501446Y-988212D01*
X506831Y-980236D01*
X510844Y-971448D01*
X513384Y-961593D01*
X515112Y-958037D01*
X518109Y-955395D01*
X521868Y-954125D01*
X525881Y-954379D01*
X536346Y-957173D01*
X546100Y-958037D01*
X555904Y-957173D01*
X565353Y-954633D01*
X574294Y-950518D01*
X581253Y-945642D01*
X585317Y-943914D01*
X589686Y-944118D01*
X593598Y-946150D01*
X596290Y-949655D01*
X598881Y-955294D01*
X604520Y-963320D01*
X611479Y-970280D01*
X619506Y-975918D01*
X628446Y-980033D01*
X637895Y-982573D01*
X647700Y-983437D01*
X657504Y-982573D01*
X666953Y-980033D01*
X675894Y-975918D01*
X683920Y-970280D01*
X690880Y-963320D01*
X696518Y-955294D01*
X700633Y-946353D01*
X703173Y-936904D01*
X704037Y-927100D01*
X703173Y-917295D01*
X700633Y-907846D01*
X696518Y-898906D01*
X690880Y-890879D01*
X689305Y-889304D01*
X687070Y-886002D01*
X686308Y-882091D01*
X686308Y-876808D01*
X685901Y-872642D01*
X686358Y-868527D01*
X688390Y-864971D01*
X691642Y-862482D01*
X695655Y-861517D01*
X699770Y-862228D01*
X703173Y-864463D01*
X745947Y-907237D01*
X748233Y-910691D01*
X748944Y-914704D01*
X747979Y-918718D01*
X747166Y-920546D01*
X744626Y-929995D01*
X743762Y-939800D01*
X744626Y-949604D01*
X747166Y-959053D01*
X751281Y-967994D01*
X756920Y-976020D01*
X763879Y-982980D01*
X771906Y-988618D01*
X780846Y-992733D01*
X790295Y-995273D01*
X800100Y-996137D01*
X809904Y-995273D01*
X819353Y-992733D01*
X828294Y-988618D01*
X836320Y-982980D01*
X843280Y-976020D01*
X848918Y-967994D01*
X853033Y-959053D01*
X855573Y-949604D01*
X856437Y-939800D01*
X855573Y-929995D01*
X853033Y-920546D01*
X848918Y-911606D01*
X843280Y-903579D01*
X839266Y-899566D01*
X837742Y-897636D01*
X835710Y-892048D01*
X832154Y-885342D01*
X827024Y-879144D01*
X682955Y-735076D01*
X676757Y-729945D01*
X670052Y-726389D01*
X662838Y-724204D01*
X654812Y-723392D01*
X515518Y-723392D01*
X511606Y-722630D01*
X508304Y-720394D01*
X490626Y-702767D01*
X488340Y-699262D01*
X487680Y-695096D01*
X488696Y-691083D01*
X490372Y-687730D01*
X494741Y-674776D01*
X497433Y-661365D01*
X498348Y-647700D01*
X497433Y-634034D01*
X494741Y-620623D01*
X490372Y-607669D01*
X484327Y-595376D01*
X476707Y-583996D01*
X469849Y-576173D01*
X467868Y-572820D01*
X467309Y-569010D01*
X468223Y-565251D01*
X470458Y-562152D01*
X473659Y-560019D01*
X477469Y-559308D01*
X812292Y-559308D01*
X817422Y-558800D01*
X821436Y-559206D01*
X824941Y-561136D01*
X827430Y-564286D01*
X828548Y-568147D01*
X828040Y-572109D01*
X826058Y-575614D01*
X818692Y-583996D01*
X811072Y-595376D01*
X805027Y-607669D01*
X800658Y-620623D01*
X797966Y-634034D01*
X797052Y-647700D01*
X797966Y-661365D01*
X800658Y-674776D01*
X805027Y-687730D01*
X811072Y-700024D01*
X818692Y-711403D01*
X827735Y-721664D01*
X837996Y-730707D01*
X849376Y-738327D01*
X861669Y-744372D01*
X874623Y-748741D01*
X888034Y-751433D01*
X901700Y-752348D01*
X915365Y-751433D01*
X928776Y-748741D01*
X941730Y-744372D01*
X954024Y-738327D01*
X965403Y-730707D01*
X975664Y-721664D01*
X984707Y-711403D01*
X992327Y-700024D01*
X998372Y-687730D01*
X1002741Y-674776D01*
X1005433Y-661365D01*
X1006348Y-647700D01*
X1005433Y-634034D01*
X1002741Y-620623D01*
X998372Y-607669D01*
X992327Y-595376D01*
X984707Y-583996D01*
X975664Y-573735D01*
X965403Y-564692D01*
X954024Y-557072D01*
X941730Y-551027D01*
X928776Y-546658D01*
X915365Y-543966D01*
X901700Y-543052D01*
X888034Y-543966D01*
X874623Y-546658D01*
X865682Y-549656D01*
X861212Y-550164D01*
X856945Y-548640D01*
X853795Y-545439D01*
X852322Y-541172D01*
X852830Y-536702D01*
X855218Y-532892D01*
X887272Y-500837D01*
X890879Y-498500D01*
X895096Y-497890D01*
X901700Y-498348D01*
X915365Y-497433D01*
X928776Y-494741D01*
X941730Y-490372D01*
X954024Y-484327D01*
X965403Y-476707D01*
X975664Y-467664D01*
X984707Y-457403D01*
X992327Y-446024D01*
X998372Y-433730D01*
X1002741Y-420776D01*
X1005433Y-407365D01*
X1006348Y-393700D01*
X1005433Y-380034D01*
X1002741Y-366623D01*
X998372Y-353669D01*
X992327Y-341376D01*
X984707Y-329996D01*
X975664Y-319735D01*
X965403Y-310692D01*
X954024Y-303072D01*
X941730Y-297027D01*
X928776Y-292658D01*
X915365Y-289966D01*
X901700Y-289052D01*
X888034Y-289966D01*
X874623Y-292658D01*
X861669Y-297027D01*
X849376Y-303072D01*
X837996Y-310692D01*
X827735Y-319735D01*
X818692Y-329996D01*
X811072Y-341376D01*
X805027Y-353669D01*
X800658Y-366623D01*
X797966Y-380034D01*
X797052Y-393700D01*
X797966Y-407365D01*
X800658Y-420776D01*
X805027Y-433730D01*
X811072Y-446024D01*
X815187Y-452170D01*
X816610Y-455320D01*
X816864Y-458774D01*
X815949Y-462127D01*
X813917Y-464972D01*
X799795Y-479094D01*
X796493Y-481330D01*
X792581Y-482092D01*
X731469Y-482092D01*
X727659Y-481380D01*
X724458Y-479247D01*
X722223Y-476148D01*
X721309Y-472389D01*
X721868Y-468579D01*
X723849Y-465226D01*
X730707Y-457403D01*
X738327Y-446024D01*
X744372Y-433730D01*
X748741Y-420776D01*
X751433Y-407365D01*
X752348Y-393700D01*
X751433Y-380034D01*
X748741Y-366623D01*
X744372Y-353669D01*
X738327Y-341376D01*
X730707Y-329996D01*
X721664Y-319735D01*
X711403Y-310692D01*
X700024Y-303072D01*
X687730Y-297027D01*
X674776Y-292658D01*
X661365Y-289966D01*
X647700Y-289052D01*
X634034Y-289966D01*
X620623Y-292658D01*
X607669Y-297027D01*
X595376Y-303072D01*
X583996Y-310692D01*
X573735Y-319735D01*
X564692Y-329996D01*
X557072Y-341376D01*
X551027Y-353669D01*
X546658Y-366623D01*
X543966Y-380034D01*
X543052Y-393700D01*
X543966Y-407365D01*
X546658Y-420776D01*
X551027Y-433730D01*
X557072Y-446024D01*
X564692Y-457403D01*
X571550Y-465226D01*
X573532Y-468579D01*
X574090Y-472389D01*
X573176Y-476148D01*
X570941Y-479247D01*
X567740Y-481380D01*
X563930Y-482092D01*
X477469Y-482092D01*
X473659Y-481380D01*
X470458Y-479247D01*
X468223Y-476148D01*
X467309Y-472389D01*
X467868Y-468579D01*
X469849Y-465226D01*
X476707Y-457403D01*
X484327Y-446024D01*
X490372Y-433730D01*
X494741Y-420776D01*
X497433Y-407365D01*
X498348Y-393700D01*
X497433Y-380034D01*
X494741Y-366623D01*
X490372Y-353669D01*
X484327Y-341376D01*
X476707Y-329996D01*
X467664Y-319735D01*
X457403Y-310692D01*
X446024Y-303072D01*
X433730Y-297027D01*
X420776Y-292658D01*
X407365Y-289966D01*
X393700Y-289052D01*
X380034Y-289966D01*
X366623Y-292658D01*
X353669Y-297027D01*
X341376Y-303072D01*
X329996Y-310692D01*
X319735Y-319735D01*
X310692Y-329996D01*
X303072Y-341376D01*
X297027Y-353669D01*
X292658Y-366623D01*
X289966Y-380034D01*
X289052Y-393700D01*
X289966Y-407365D01*
X292658Y-420776D01*
X297027Y-433730D01*
X303072Y-446024D01*
X310692Y-457403D01*
X317550Y-465226D01*
X319532Y-468579D01*
X320090Y-472389D01*
X319176Y-476148D01*
X316941Y-479247D01*
X313740Y-481380D01*
X309930Y-482092D01*
X223469Y-482092D01*
X219659Y-481380D01*
X216458Y-479247D01*
X214223Y-476148D01*
X213309Y-472389D01*
X213867Y-468579D01*
X215849Y-465226D01*
X222707Y-457403D01*
X230327Y-446024D01*
X236372Y-433730D01*
X240741Y-420776D01*
X243433Y-407365D01*
X244348Y-393700D01*
X243433Y-380034D01*
X240741Y-366623D01*
X236372Y-353669D01*
X230327Y-341376D01*
X222707Y-329996D01*
X213664Y-319735D01*
X203403Y-310692D01*
X192024Y-303072D01*
X179730Y-297027D01*
X166776Y-292658D01*
X153365Y-289966D01*
X139700Y-289052D01*
X126034Y-289966D01*
X112623Y-292658D01*
X99669Y-297027D01*
X87376Y-303072D01*
X75996Y-310692D01*
X65735Y-319735D01*
X56692Y-329996D01*
X49072Y-341376D01*
X43027Y-353669D01*
X38658Y-366623D01*
X35966Y-380034D01*
X35052Y-393700D01*
X35966Y-407365D01*
X38658Y-420776D01*
X43027Y-433730D01*
X49072Y-446024D01*
X56692Y-457403D01*
X63550Y-465226D01*
X65532Y-468579D01*
X66090Y-472389D01*
X65176Y-476148D01*
X62941Y-479247D01*
X59740Y-481380D01*
X55930Y-482092D01*
X-30530Y-482092D01*
X-34340Y-481380D01*
X-37541Y-479247D01*
X-39776Y-476148D01*
X-40690Y-472389D01*
X-40132Y-468579D01*
X-38150Y-465226D01*
X-31292Y-457403D01*
X-23672Y-446024D01*
X-17627Y-433730D01*
X-13258Y-420776D01*
X-10566Y-407365D01*
X-9652Y-393700D01*
X-10566Y-380034D01*
X-13258Y-366623D01*
X-17627Y-353669D01*
X-23672Y-341376D01*
X-31292Y-329996D01*
X-40335Y-319735D01*
X-50596Y-310692D01*
X-61976Y-303072D01*
X-74269Y-297027D01*
X-87223Y-292658D01*
X-100634Y-289966D01*
X-114300Y-289052D01*
X-127965Y-289966D01*
X-141376Y-292658D01*
X-154330Y-297027D01*
X-166624Y-303072D01*
X-178003Y-310692D01*
X-188264Y-319735D01*
X-197307Y-329996D01*
X-204927Y-341376D01*
X-210972Y-353669D01*
X-215341Y-366623D01*
X-218033Y-380034D01*
X-218948Y-393700D01*
X-218033Y-407365D01*
X-215341Y-420776D01*
X-210972Y-433730D01*
X-204927Y-446024D01*
X-197307Y-457403D01*
X-189839Y-465937D01*
X-187706Y-469798D01*
X-187452Y-474218D01*
X-189077Y-478332D01*
X-192278Y-481330D01*
X-196494Y-482752D01*
X-198018Y-482904D01*
X-205232Y-485089D01*
X-211937Y-488645D01*
X-218135Y-493776D01*
X-293624Y-569264D01*
X-298754Y-575462D01*
X-302310Y-582168D01*
X-304495Y-589381D01*
X-305308Y-597408D01*
X-305308Y-774192D01*
X-304495Y-782218D01*
X-302310Y-789432D01*
X-298754Y-796137D01*
X-293624Y-802335D01*
X-262331Y-833678D01*
X-260299Y-836574D01*
X-259384Y-839978D01*
X-258673Y-848004D01*
X-256133Y-857453D01*
X-252018Y-866394D01*
X-246379Y-874420D01*
X-239420Y-881380D01*
X-231394Y-887018D01*
X-222453Y-891133D01*
X-213004Y-893673D01*
X-203200Y-894537D01*
X-193395Y-893673D01*
X-183946Y-891133D01*
X-175006Y-887018D01*
X-166979Y-881380D01*
X-160020Y-874420D01*
X-154381Y-866394D01*
X-150266Y-857453D01*
X-147726Y-848004D01*
X-146862Y-838200D01*
X-147726Y-828395D01*
X-150266Y-818946D01*
X-154381Y-810006D01*
X-160020Y-801979D01*
X-166979Y-795020D01*
X-175006Y-789381D01*
X-183946Y-785266D01*
X-193395Y-782726D01*
X-201422Y-782015D01*
X-204825Y-781100D01*
X-207721Y-779068D01*
X-225094Y-761695D01*
X-227329Y-758393D01*
X-228092Y-754481D01*
X-228092Y-696569D01*
X-227075Y-692200D01*
X-224282Y-688644D01*
X-220217Y-686663D01*
X-215747Y-686663D01*
X-211683Y-688594D01*
X-208838Y-692099D01*
X-204927Y-700024D01*
X-197307Y-711403D01*
X-188264Y-721664D01*
X-178003Y-730707D01*
X-166624Y-738327D01*
X-154330Y-744372D01*
X-141376Y-748741D01*
X-127965Y-751433D01*
X-114300Y-752348D01*
X-100634Y-751433D01*
X-86969Y-748690D01*
X-83667Y-748588D01*
X-80518Y-749554D01*
X-77825Y-751484D01*
X23164Y-852424D01*
X29362Y-857554D01*
X36068Y-861110D01*
X43281Y-863295D01*
X51308Y-864108D01*
X178917Y-864108D01*
X182981Y-864971D01*
X186385Y-867359D01*
X188518Y-870915D01*
X189077Y-875030D01*
X187909Y-878992D01*
X185267Y-882192D01*
X181559Y-884072D01*
X171246Y-886866D01*
X162306Y-890981D01*
X154279Y-896619D01*
X152704Y-898194D01*
X149402Y-900430D01*
X145491Y-901192D01*
X57708Y-901192D01*
X53797Y-900430D01*
X50495Y-898194D01*
X48920Y-896619D01*
X40894Y-890981D01*
X31953Y-886866D01*
X22504Y-884326D01*
X12700Y-883462D01*
X2895Y-884326D01*
X-6553Y-886866D01*
X-15494Y-890981D01*
X-23520Y-896619D01*
X-30480Y-903579D01*
X-36118Y-911606D01*
X-40233Y-920546D01*
X-42773Y-929995D01*
X-43484Y-938021D01*
X-44399Y-941425D01*
X-46431Y-944321D01*
X-255524Y-1153464D01*
X-260654Y-1159662D01*
X-264210Y-1166368D01*
X-266395Y-1173581D01*
X-267208Y-1181608D01*
X-267208Y-1212291D01*
X-267970Y-1216202D01*
X-270205Y-1219504D01*
X-271780Y-1221079D01*
X-277418Y-1229106D01*
X-281533Y-1238046D01*
X-284073Y-1247495D01*
X-284937Y-1257300D01*
X-284073Y-1267104D01*
X-281533Y-1276553D01*
X-277418Y-1285494D01*
X-271780Y-1293520D01*
X-264820Y-1300480D01*
X-256794Y-1306118D01*
X-247853Y-1310233D01*
X-238404Y-1312773D01*
G37*

%LPD*%
G36*
X1054100Y-1574800D02*
G01*
X762000Y-1778000D01*
X63500Y-1778000D01*
X-76200Y-1854200D01*
X-76200Y-1981200D01*
X25400Y-2019300D01*
X812800Y-2019300D01*
X889000Y-1943100D01*
X1168400Y-1943100D01*
X1295400Y-1828800D01*
X1295400Y-1612900D01*
X1219200Y-1574800D01*
G37*
D10*
X190500Y-939800D02*
G01*
X330200Y-939800D01*
X12700Y-939800D02*
G01*
X-228600Y-1181100D01*
X-228600Y-1257300D01*
X190500Y-939800D02*
G01*
X25400Y-939800D01*
X12700Y-939800D01*
X330200Y-939800D02*
G01*
X342900Y-952500D01*
X457200Y-952500D01*
X393700Y-660400D02*
G01*
X495300Y-762000D01*
X655320Y-762000D01*
X800100Y-906779D01*
X800100Y-939800D01*
X139700Y-660400D02*
G01*
X254000Y-774700D01*
X444500Y-774700D01*
X482600Y-812800D01*
X584200Y-812800D01*
X647700Y-876300D01*
X647700Y-927100D01*
X-203200Y-838200D02*
G01*
X-266700Y-774700D01*
X-266700Y-596900D01*
X-190500Y-520700D01*
X812800Y-520700D01*
X901700Y-431800D01*
X901700Y-393700D01*
X546100Y-901700D02*
G01*
X495300Y-863600D01*
X457200Y-863600D01*
X419100Y-825500D01*
X50800Y-825500D01*
X-114300Y-660400D01*
D11*
G01*
X1625600Y-774700D03*
G01*
X1625600Y-1270000D03*
D12*
G01*
X1816100Y-2120900D03*
G01*
X-444500Y-368300D03*
G01*
X-444500Y-2133600D03*
G01*
X1816100Y-381000D03*
D13*
G01*
X-114300Y-2184400D03*
G01*
X139700Y-2184400D03*
G01*
X393700Y-2184400D03*
G01*
X647700Y-2184400D03*
G01*
X-114300Y-647700D03*
G01*
X139700Y-647700D03*
G01*
X393700Y-647700D03*
G01*
X647700Y-647700D03*
G01*
X901700Y-647700D03*
G01*
X-114300Y-393700D03*
G01*
X139700Y-393700D03*
G01*
X393700Y-393700D03*
G01*
X647700Y-393700D03*
G01*
X901700Y-393700D03*
G01*
X1155700Y-393700D03*
D14*
G01*
X205613Y-1447012D03*
G01*
X205613Y-1347012D03*
G01*
X305612Y-1447012D03*
G01*
X305612Y-1347012D03*
G01*
X405612Y-1447012D03*
G01*
X405612Y-1347012D03*
G01*
X505612Y-1447012D03*
G01*
X505612Y-1347012D03*
D15*
G01*
X114300Y-1828800D03*
G01*
X0Y-1917700D03*
G01*
X114300Y-1905000D03*
G01*
X698500Y-1841500D03*
G01*
X749300Y-1905000D03*
G01*
X622300Y-1841500D03*
G01*
X647700Y-1905000D03*
G01*
X50800Y-1866900D03*
G01*
X190500Y-939800D03*
G01*
X330200Y-939800D03*
G01*
X12700Y-939800D03*
G01*
X546100Y-901700D03*
G01*
X647700Y-927100D03*
G01*
X800100Y-939800D03*
G01*
X1600200Y-596900D03*
G01*
X1485900Y-2070100D03*
G01*
X1587500Y-1676400D03*
G01*
X-228600Y-1257300D03*
G01*
X1435100Y-1739900D03*
G01*
X1587500Y-2159000D03*
G01*
X1676400Y-1612900D03*
G01*
X1689100Y-1739900D03*
G01*
X1371600Y-2159000D03*
G01*
X1422400Y-482600D03*
G01*
X1587500Y-1003300D03*
G01*
X939800Y-1384300D03*
G01*
X1282700Y-2082800D03*
G01*
X1181100Y-2184400D03*
G01*
X-203200Y-838200D03*
G01*
X-50800Y-863600D03*
G01*
X927100Y-2171700D03*
G01*
X1587500Y-355600D03*
G01*
X1346200Y-1130300D03*
G01*
X1447800Y-660400D03*
G01*
X914400Y-1524000D03*
G01*
X1193800Y-1625600D03*
G01*
X1066800Y-1625600D03*
G01*
X1231900Y-1701800D03*
G01*
X1117600Y-1701800D03*
G01*
X59054Y-1946503D03*
G01*
X775970Y-1840661D03*
D16*
G01*
X-215900Y-1409700D03*
G01*
X-292100Y-2095500D03*
G01*
X-152400Y-1612900D03*
G01*
X457200Y-952500D03*
G01*
X-317500Y-850900D03*
G01*
X-127000Y-990600D03*
M02*
